<?xml version="1.0" encoding="UTF-8" standalone="no"?>
<svg
   xmlns:dc="http://purl.org/dc/elements/1.1/"
   xmlns:cc="http://creativecommons.org/ns#"
   xmlns:rdf="http://www.w3.org/1999/02/22-rdf-syntax-ns#"
   xmlns:svg="http://www.w3.org/2000/svg"
   xmlns="http://www.w3.org/2000/svg"
   xmlns:sodipodi="http://sodipodi.sourceforge.net/DTD/sodipodi-0.dtd"
   xmlns:inkscape="http://www.inkscape.org/namespaces/inkscape"
   version="1.0"
   width="739.3363pt"
   height="904.20367pt"
   viewBox="0 0 739.3363 904.20367"
   preserveAspectRatio="xMidYMid meet"
   id="svg961"
   sodipodi:docname="title-image.svg"
   inkscape:version="0.92.2 5c3e80d, 2017-08-06">
  <defs
     id="defs965" />
  <sodipodi:namedview
     pagecolor="#ffffff"
     bordercolor="#666666"
     borderopacity="1"
     objecttolerance="10"
     gridtolerance="10"
     guidetolerance="10"
     inkscape:pageopacity="0"
     inkscape:pageshadow="2"
     inkscape:window-width="1278"
     inkscape:window-height="700"
     id="namedview963"
     showgrid="false"
     inkscape:zoom="0.25532493"
     inkscape:cx="108.35303"
     inkscape:cy="500.7173"
     inkscape:window-x="-4"
     inkscape:window-y="0"
     inkscape:window-maximized="0"
     inkscape:current-layer="svg961"
     fit-margin-top="0"
     fit-margin-left="0"
     fit-margin-right="0"
     fit-margin-bottom="0" />
  <metadata
     id="metadata953">
Created by potrace 1.11, written by Peter Selinger 2001-2013
<rdf:RDF>
  <cc:Work
     rdf:about="">
    <dc:format>image/svg+xml</dc:format>
    <dc:type
       rdf:resource="http://purl.org/dc/dcmitype/StillImage" />
    <dc:title></dc:title>
  </cc:Work>
</rdf:RDF>
</metadata>
  <g
     transform="matrix(0.08396037,0,0,-0.07647231,-60.526333,783.07645)"
     id="g959"
     style="fill:#2b3990;fill-opacity:1;stroke:none">
    <path
       d="m 3641,10203 c -16,-62 -31,-164 -31,-218 0,-72 18,-125 52,-157 49,-46 245,-97 438,-114 36,-3 75,-7 88,-10 l 22,-4 V 6772 3845 l 417,-300 c 229,-165 440,-317 468,-337 l 51,-37 397,370 397,370 v 2869 2868 l 113,27 c 99,23 120,25 183,16 168,-24 304,41 378,183 25,47 26,56 26,207 v 159 H 5145 3651 Z m 2720,-99 c 27,-20 57,-50 65,-66 14,-27 14,-31 -1,-48 -27,-30 -116,-43 -240,-36 -380,23 -1838,165 -1854,181 -2,3 442,5 988,5 h 993 z m -753,-3265 -3,-2861 -127,-48 -128,-48 v 2867 2867 l 123,41 c 67,23 125,42 130,42 4,1 6,-1286 5,-2860 z"
       id="path955"
       style="fill:#2b3990;fill-opacity:1"
       inkscape:connector-curvature="0" />
    <path
       d="m 2745,7944 c -95,-13 -158,-29 -225,-55 -82,-33 -218,-119 -264,-168 -17,-17 -36,-31 -43,-31 -18,0 -324,-306 -430,-431 C 1223,6600 869,5810 760,4976 669,4283 737,3602 962,2951 1335,1870 2129,966 3157,451 3621,219 4101,77 4625,15 c 182,-21 807,-21 995,0 785,89 1532,388 2161,866 343,261 685,613 929,954 184,259 396,647 509,935 303,769 384,1602 235,2420 -129,705 -444,1392 -900,1961 -179,224 -448,495 -619,624 -79,60 -201,120 -301,146 -112,30 -306,30 -419,0 -266,-71 -477,-256 -579,-507 -69,-168 -75,-401 -16,-576 44,-133 115,-245 213,-338 369,-348 501,-508 667,-807 158,-284 270,-623 317,-963 23,-172 23,-520 -1,-685 -71,-492 -239,-902 -530,-1290 -102,-136 -356,-396 -483,-495 -388,-300 -800,-477 -1298,-557 -158,-26 -602,-25 -765,0 -825,129 -1523,597 -1950,1307 -177,296 -300,645 -357,1017 -24,157 -24,567 0,723 68,441 210,807 448,1160 135,200 241,316 523,574 494,450 287,1271 -362,1437 -74,19 -237,32 -297,23 z"
       id="path957"
       style="fill:#2b3990;fill-opacity:1"
       inkscape:connector-curvature="0" />
  </g>
  <flowRoot
     xml:space="preserve"
     id="flowRoot990"
     style="font-style:normal;font-variant:normal;font-weight:normal;font-stretch:normal;font-size:85.33333588px;line-height:1.25;font-family:Helvetica;-inkscape-font-specification:'Helvetica, Normal';font-variant-ligatures:normal;font-variant-caps:normal;font-variant-numeric:normal;font-feature-settings:normal;text-align:start;letter-spacing:0px;word-spacing:0px;writing-mode:lr-tb;text-anchor:start;fill:#000000;fill-opacity:1;stroke:none"
     transform="matrix(2.5507743,0,0,2.5507743,-218.68565,-2141.1734)"><flowRegion
       id="flowRegion992"
       style="font-style:normal;font-variant:normal;font-weight:normal;font-stretch:normal;font-size:85.33333588px;font-family:Helvetica;-inkscape-font-specification:'Helvetica, Normal';font-variant-ligatures:normal;font-variant-caps:normal;font-variant-numeric:normal;font-feature-settings:normal;text-align:start;writing-mode:lr-tb;text-anchor:start"><rect
         id="rect994"
         width="252.01894"
         height="130.16362"
         x="127.39419"
         y="1102.2367"
         style="font-style:normal;font-variant:normal;font-weight:normal;font-stretch:normal;font-size:85.33333588px;font-family:Helvetica;-inkscape-font-specification:'Helvetica, Normal';font-variant-ligatures:normal;font-variant-caps:normal;font-variant-numeric:normal;font-feature-settings:normal;text-align:start;writing-mode:lr-tb;text-anchor:start" /></flowRegion><flowPara
       id="flowPara996">A→あ</flowPara></flowRoot></svg>
